<?xml version="1.0"?>
<svg xmlns="http://www.w3.org/2000/svg" xmlns:xlink="http://www.w3.org/1999/xlink" xmlns:svgjs="http://svgjs.com/svgjs" version="1.1" width="512" height="512" x="0" y="0" viewBox="0 0 512 512" style="enable-background:new 0 0 512 512" xml:space="preserve" class=""><g><g xmlns="http://www.w3.org/2000/svg"><path d="m299.472 383.182c54.389-3.152 105.083-25.822 143.923-64.662 2.813-2.813 4.394-6.628 4.394-10.606 0-3.979-1.58-7.793-4.394-10.607l-33.075-33.074c20.223-24.294 32.819-54.019 36.153-86.167 4.437-42.775-8.051-84.718-35.16-118.101-27.109-33.384-65.597-54.213-108.372-58.649-42.775-4.438-84.719 8.05-118.102 35.16-.419.34-.826.69-1.241 1.034l-33.116-33.116c-5.857-5.858-15.355-5.858-21.213 0-41.953 41.953-65.058 97.732-65.058 157.063s23.104 115.11 65.058 157.063c37.953 37.954 87.224 60.479 140.203 64.428v32.439c0 .45.029.893.067 1.333h-59.783c-44.267 0-80.28 36.014-80.28 80.28 0 8.284 6.716 15 15 15h279.992c8.284 0 15-6.716 15-15 0-44.267-36.014-80.28-80.28-80.28h-59.783c.039-.44.067-.883.067-1.333zm107.712 98.818h-245.424c6.396-20.421 25.493-35.28 47.996-35.28h149.432c22.503 0 41.6 14.859 47.996 35.28zm-19.16-403.124c19.036 23.44 29.201 52.069 29.313 81.842l-61.072-34.577c-15.191-8.602-33.771-7.048-47.323 3.958l-5.374 4.363-8.223-3.042c-3.201-1.185-5.686-3.572-6.996-6.724-1.311-3.152-1.251-6.597.166-9.701l18.31-40.104c6.602-14.461 4.582-31.072-5.22-43.532 34.099 3.992 64.734 20.813 86.419 47.517zm-124.226-46.519 14.116 17.382c2.927 3.605 3.548 8.47 1.619 12.693l-18.31 40.104c-4.849 10.622-5.059 22.897-.575 33.679s13.335 19.289 24.286 23.341l16.244 6.01c4.973 1.839 10.544.918 14.66-2.423l12.014-9.755c3.904-3.17 9.257-3.619 13.632-1.14l72.005 40.767c-6.767 27.509-22.202 51.964-44.577 70.135-15.186 12.332-32.325 20.687-50.146 25.213-.002-.002-.003-.005-.005-.007l-37.028-45.597c-2.687-3.309-3.924-7.464-3.484-11.702l1.063-10.244c2.614-25.202-15.763-47.833-40.966-50.447-12.202-1.266-24.179 2.298-33.707 10.035l-39.104 31.754c-21.907-52.261-7.945-114.907 38.217-152.392 17.65-14.332 38.242-23.633 60.046-27.406zm-5.355 229.313 24.92 30.688c-37.077-.868-73.567-17.341-98.724-48.32-1.436-1.768-2.818-3.564-4.146-5.383l43.057-34.965c3.308-2.686 7.463-3.922 11.7-3.483 8.749.908 15.128 8.763 14.221 17.512l-1.063 10.244c-1.265 12.207 2.299 24.177 10.035 33.707zm-164.231-100.213c0-46.284 16.258-90.072 46.069-124.838l22.09 22.089c-48.016 57.89-50.198 143.681-1.02 204.241 31.78 39.134 78.263 59.439 125.133 59.439 35.666 0 71.562-11.768 101.342-35.951.419-.34.826-.69 1.241-1.033l22.104 22.104c-34.767 29.812-78.555 46.069-124.839 46.069-105.936 0-192.12-86.185-192.12-192.12z" fill="#fddb3a" data-original="#000000" style="" class=""/></g></g></svg>
